# xmcd
#
# Track frame offsets: 
#        150
#        12376
#        32137
#        47370
#        64529
#        80957
#        99077
#        114316
#        127928
#        144012
#        160586
#
# Disc length: 2656 seconds
#
# Revision: 0
# Processed by: cddbd v1.5.2PL0 Copyright (c) Steve Scherf et al.
# Submitted via: ExactAudioCopy v1.0b4
#
DISCID=790a5e0b
DTITLE=Delta Deep - Delta Deep
DYEAR=2015
DGENRE=Blues Rock
TTITLE0=Bang the Lid
TTITLE1=Whiskey
TTITLE2=Down In the Delta
TTITLE3=Treat Her Like Candy
TTITLE4=Miss Me
TTITLE5=Burnt Sally
TTITLE6=Private Number (feat. David Coverdale)
TTITLE7=Shuffle Sweet
TTITLE8=Black Coffee (feat. Paul Cook and Simon Laffy)
TTITLE9=Feelit
TTITLE10=Mistreated (feat. Joe Elliott)
EXTD=
EXTT0=
EXTT1=
EXTT2=
EXTT3=
EXTT4=
EXTT5=
EXTT6=
EXTT7=
EXTT8=
EXTT9=
EXTT10=
PLAYORDER=
